<svg xmlns="http://www.w3.org/2000/svg">
  <symbol viewBox="0 0 20 20" id="icons--search_ligth" xmlns="http://www.w3.org/2000/svg">
    <path data-name="Forma 1"
      d="M19.45 16.8l-4.588-4.59a8.827 8.827 0 01-2.651 2.65l4.588 4.59a1.874 1.874 0 002.651-2.65zM15 7.5A7.5 7.5 0 107.5 15 7.5 7.5 0 0015 7.5zm-7.5 5.62a5.625 5.625 0 115.625-5.62A5.628 5.628 0 017.5 13.12zM3.125 7.5h1.25A3.135 3.135 0 017.5 4.37V3.12A4.386 4.386 0 003.125 7.5z" />
  </symbol>
  <symbol viewBox="0 0 22 20" id="icons--cart" xmlns="http://www.w3.org/2000/svg">
    <path data-name="Forma 1"
      d="M.814 1.63h2.333L6.47 13.67a.812.812 0 00.787.59h10.214a.821.821 0 00.746-.48l3.717-8.56a.836.836 0 00-.068-.78.813.813 0 00-.678-.37H9.9a.82.82 0 000 1.64h10.04l-3.011 6.92H7.867L4.544.6a.808.808 0 00-.787-.6H.814a.815.815 0 000 1.63zM6.484 20a1.85 1.85 0 10-1.845-1.85A1.85 1.85 0 006.484 20zm11.53 0h.135a1.907 1.907 0 10-.135 0z" />
  </symbol>
  <symbol xmlns:svgjs="http://svgjs.com/svgjs" viewBox="0 0.742 19 16.515" id="icons--heart"
    xmlns="http://www.w3.org/2000/svg">
    <svg width="19" height="18" viewBox="1.983 1.721 17.859 15.523">
      <path paint-order="stroke fill markers"
        d="M10.913 17.244a.707.707 0 01-.28-.056c-.353-.15-8.65-3.75-8.65-10.76.091-2.65 2.207-4.707 4.818-4.707 1.743 0 3.266.918 4.112 2.31a4.796 4.796 0 014.112-2.31c2.61 0 4.725 2.058 4.817 4.684 0 7.034-8.297 10.634-8.65 10.783a.71.71 0 01-.28.056zM6.8 3.106c-1.847 0-3.343 1.47-3.408 3.346 0 5.408 6.125 8.663 7.52 9.335 1.395-.672 7.52-3.93 7.52-9.358-.065-1.853-1.563-3.323-3.408-3.323s-3.342 1.47-3.408 3.346a.7.7 0 01-.704.67.7.7 0 01-.705-.67C10.143 4.576 8.646 3.106 6.8 3.106z" />
    </svg>
  </symbol>
</svg>